<svg width="24" height="22" viewBox="0 0 24 22" fill="none" xmlns="http://www.w3.org/2000/svg">
<path d="M12.0124 8.68522V11.0186M12.0124 15.6852V15.6969M3.84568 20.3519H20.179C20.5597 20.3492 20.934 20.2535 21.2691 20.0729C21.6043 19.8924 21.8902 19.6326 22.1019 19.3162C22.3136 18.9998 22.4447 18.6364 22.4837 18.2577C22.5227 17.879 22.4685 17.4965 22.3257 17.1436L14.0423 2.85191C13.8406 2.4872 13.5448 2.18321 13.1857 1.97152C12.8267 1.75984 12.4175 1.64819 12.0007 1.64819C11.5839 1.64819 11.1747 1.75984 10.8156 1.97152C10.4566 2.18321 10.1608 2.4872 9.95901 2.85191L1.67568 17.1436C1.53561 17.4884 1.48007 17.8618 1.51369 18.2324C1.54731 18.6031 1.66912 18.9604 1.86894 19.2744C2.06877 19.5884 2.34081 19.85 2.66236 20.0375C2.98391 20.2249 3.34564 20.3327 3.71735 20.3519" stroke="#EB0237" stroke-width="1.8" stroke-linecap="round" stroke-linejoin="round"/>
</svg>
